<?xml version="1.0" encoding="utf-8" standalone="no"?>
<!DOCTYPE svg PUBLIC "-//W3C//DTD SVG 1.1//EN"
  "http://www.w3.org/Graphics/SVG/1.1/DTD/svg11.dtd">
<svg height="333.945pt" version="1.1" viewBox="0 0 476.245 333.945" width="476.245pt" xmlns="http://www.w3.org/2000/svg" xmlns:xlink="http://www.w3.org/1999/xlink">
 <metadata>
  <rdf:RDF xmlns:cc="http://creativecommons.org/ns#" xmlns:dc="http://purl.org/dc/elements/1.1/" xmlns:rdf="http://www.w3.org/1999/02/22-rdf-syntax-ns#">
   <cc:Work>
    <dc:type rdf:resource="http://purl.org/dc/dcmitype/StillImage"/>
    <dc:date>2025-10-24T15:46:28.625802</dc:date>
    <dc:format>image/svg+xml</dc:format>
    <dc:creator>
     <cc:Agent>
      <dc:title>Matplotlib v3.4.3, https://matplotlib.org/</dc:title>
     </cc:Agent>
    </dc:creator>
   </cc:Work>
  </rdf:RDF>
 </metadata>
 <defs>
  <style type="text/css">*{stroke-linecap:butt;stroke-linejoin:round;}</style>
 </defs>
 <g id="figure_1">
  <g id="patch_1">
   <path d="M 0 333.945 
L 476.245 333.945 
L 476.245 0 
L 0 0 
z
" style="fill:none;"/>
  </g>
  <g id="axes_1">
   <g id="patch_2">
    <path d="M 67.285 284.4 
L 469.045 284.4 
L 469.045 7.2 
L 67.285 7.2 
z
" style="fill:none;"/>
   </g>
   <g id="matplotlib.axis_1">
    <g id="xtick_1">
     <g id="line2d_1">
      <defs>
       <path d="M 0 0 
L 0 -6 
" id="mc7e701a794" style="stroke:#000000;stroke-width:1.2;"/>
      </defs>
      <g>
       <use style="stroke:#000000;stroke-width:1.2;" x="107.461" xlink:href="#mc7e701a794" y="284.4"/>
      </g>
     </g>
     <g id="text_1">
      <text style="font-family:DejaVu Sans;font-size:16px;font-stretch:normal;font-style:normal;font-weight:normal;text-anchor:middle;" transform="rotate(-0, 107.461, 300.0575)" x="107.461" y="300.0575">−0.4</text>
     </g>
    </g>
    <g id="xtick_2">
     <g id="line2d_2">
      <g>
       <use style="stroke:#000000;stroke-width:1.2;" x="187.813" xlink:href="#mc7e701a794" y="284.4"/>
      </g>
     </g>
     <g id="text_2">
      <text style="font-family:DejaVu Sans;font-size:16px;font-stretch:normal;font-style:normal;font-weight:normal;text-anchor:middle;" transform="rotate(-0, 187.813, 300.0575)" x="187.813" y="300.0575">−0.2</text>
     </g>
    </g>
    <g id="xtick_3">
     <g id="line2d_3">
      <g>
       <use style="stroke:#000000;stroke-width:1.2;" x="268.165" xlink:href="#mc7e701a794" y="284.4"/>
      </g>
     </g>
     <g id="text_3">
      <text style="font-family:DejaVu Sans;font-size:16px;font-stretch:normal;font-style:normal;font-weight:normal;text-anchor:middle;" transform="rotate(-0, 268.165, 300.0575)" x="268.165" y="300.0575">0.0</text>
     </g>
    </g>
    <g id="xtick_4">
     <g id="line2d_4">
      <g>
       <use style="stroke:#000000;stroke-width:1.2;" x="348.517" xlink:href="#mc7e701a794" y="284.4"/>
      </g>
     </g>
     <g id="text_4">
      <text style="font-family:DejaVu Sans;font-size:16px;font-stretch:normal;font-style:normal;font-weight:normal;text-anchor:middle;" transform="rotate(-0, 348.517, 300.0575)" x="348.517" y="300.0575">0.2</text>
     </g>
    </g>
    <g id="xtick_5">
     <g id="line2d_5">
      <g>
       <use style="stroke:#000000;stroke-width:1.2;" x="428.869" xlink:href="#mc7e701a794" y="284.4"/>
      </g>
     </g>
     <g id="text_5">
      <text style="font-family:DejaVu Sans;font-size:16px;font-stretch:normal;font-style:normal;font-weight:normal;text-anchor:middle;" transform="rotate(-0, 428.869, 300.0575)" x="428.869" y="300.0575">0.4</text>
     </g>
    </g>
    <g id="text_6">
     <!-- $(p_g - p_{gc})L^{1/\nu}$ -->
     <g transform="translate(217.445 321.785)">
      <text>
       <tspan style="font-family:DejaVu Sans;font-size:16px;font-style:book;font-weight:book;" x="0 27.0625 67.446875" y="-0.7046875000000004">(−)</tspan>
       <tspan style="font-family:DejaVu Sans;font-size:16px;font-style:oblique;font-weight:oblique;" x="6.242188 43.585938 73.689063" y="-0.7046875000000004">ppL</tspan>
       <tspan style="font-family:DejaVu Sans;font-size:11.2px;font-style:oblique;font-weight:oblique;" x="16.398438 53.742188 60.851562 94.62599" y="1.9203125000000014 1.9203125000000014 1.9203125000000014 -6.8296875">ggcν</tspan>
       <tspan style="font-family:DejaVu Sans;font-size:11.2px;font-style:book;font-weight:book;" x="83.726771 90.852552" y="-6.8296875">1/</tspan>
      </text>
     </g>
    </g>
   </g>
   <g id="matplotlib.axis_2">
    <g id="ytick_1">
     <g id="line2d_6">
      <defs>
       <path d="M 0 0 
L 6 0 
" id="mb508e56eed" style="stroke:#000000;stroke-width:1.2;"/>
      </defs>
      <g>
       <use style="stroke:#000000;stroke-width:1.2;" x="67.285" xlink:href="#mb508e56eed" y="284.4"/>
      </g>
     </g>
     <g id="text_7">
      <text style="font-family:DejaVu Sans;font-size:16px;font-stretch:normal;font-style:normal;font-weight:normal;text-anchor:end;" transform="rotate(-0, 63.785, 290.47875)" x="63.785" y="290.47875">0.00</text>
     </g>
    </g>
    <g id="ytick_2">
     <g id="line2d_7">
      <g>
       <use style="stroke:#000000;stroke-width:1.2;" x="67.285" xlink:href="#mb508e56eed" y="232.064934"/>
      </g>
     </g>
     <g id="text_8">
      <text style="font-family:DejaVu Sans;font-size:16px;font-stretch:normal;font-style:normal;font-weight:normal;text-anchor:end;" transform="rotate(-0, 63.785, 238.143684)" x="63.785" y="238.143684">0.05</text>
     </g>
    </g>
    <g id="ytick_3">
     <g id="line2d_8">
      <g>
       <use style="stroke:#000000;stroke-width:1.2;" x="67.285" xlink:href="#mb508e56eed" y="179.729869"/>
      </g>
     </g>
     <g id="text_9">
      <text style="font-family:DejaVu Sans;font-size:16px;font-stretch:normal;font-style:normal;font-weight:normal;text-anchor:end;" transform="rotate(-0, 63.785, 185.808619)" x="63.785" y="185.808619">0.10</text>
     </g>
    </g>
    <g id="ytick_4">
     <g id="line2d_9">
      <g>
       <use style="stroke:#000000;stroke-width:1.2;" x="67.285" xlink:href="#mb508e56eed" y="127.394803"/>
      </g>
     </g>
     <g id="text_10">
      <text style="font-family:DejaVu Sans;font-size:16px;font-stretch:normal;font-style:normal;font-weight:normal;text-anchor:end;" transform="rotate(-0, 63.785, 133.473553)" x="63.785" y="133.473553">0.15</text>
     </g>
    </g>
    <g id="ytick_5">
     <g id="line2d_10">
      <g>
       <use style="stroke:#000000;stroke-width:1.2;" x="67.285" xlink:href="#mb508e56eed" y="75.059737"/>
      </g>
     </g>
     <g id="text_11">
      <text style="font-family:DejaVu Sans;font-size:16px;font-stretch:normal;font-style:normal;font-weight:normal;text-anchor:end;" transform="rotate(-0, 63.785, 81.138487)" x="63.785" y="81.138487">0.20</text>
     </g>
    </g>
    <g id="ytick_6">
     <g id="line2d_11">
      <g>
       <use style="stroke:#000000;stroke-width:1.2;" x="67.285" xlink:href="#mb508e56eed" y="22.724671"/>
      </g>
     </g>
     <g id="text_12">
      <text style="font-family:DejaVu Sans;font-size:16px;font-stretch:normal;font-style:normal;font-weight:normal;text-anchor:end;" transform="rotate(-0, 63.785, 28.803421)" x="63.785" y="28.803421">0.25</text>
     </g>
    </g>
    <g id="text_13">
     <!-- $L^{-\zeta}\mathrm{var}[T^C]$ -->
     <g transform="translate(20.8325 187.56)rotate(-90)">
      <text>
       <tspan style="font-family:DejaVu Sans;font-size:16px;font-style:oblique;font-weight:oblique;" x="0 58.045521" y="-0.3656250000000014">LT</tspan>
       <tspan style="font-family:DejaVu Sans;font-size:11.2px;font-style:book;font-weight:book;" x="10.037708" y="-6.490625000000001">−</tspan>
       <tspan style="font-family:DejaVu Sans;font-size:11.2px;font-style:oblique;font-weight:oblique;" x="19.422083 68.942604" y="-6.490625000000001">ζC</tspan>
       <tspan style="font-family:DejaVu Sans;font-size:16px;font-style:book;font-weight:book;" x="25.951771 35.420521 45.225208 51.803333 77.200417" y="-0.3656250000000014">var[]</tspan>
      </text>
     </g>
    </g>
   </g>
   <g id="line2d_12">
    <defs>
     <path d="M 0 3 
C 0.795609 3 1.55874 2.683901 2.12132 2.12132 
C 2.683901 1.55874 3 0.795609 3 0 
C 3 -0.795609 2.683901 -1.55874 2.12132 -2.12132 
C 1.55874 -2.683901 0.795609 -3 0 -3 
C -0.795609 -3 -1.55874 -2.683901 -2.12132 -2.12132 
C -2.683901 -1.55874 -3 -0.795609 -3 0 
C -3 0.795609 -2.683901 1.55874 -2.12132 2.12132 
C -1.55874 2.683901 -0.795609 3 0 3 
z
" id="m6fe24c6654" style="stroke:#1f77b4;"/>
    </defs>
    <g clip-path="url(#p17b20f0386)">
     <use style="fill:#1f77b4;stroke:#1f77b4;" x="154.471686" xlink:href="#m6fe24c6654" y="243.915528"/>
     <use style="fill:#1f77b4;stroke:#1f77b4;" x="170.918881" xlink:href="#m6fe24c6654" y="213.957019"/>
     <use style="fill:#1f77b4;stroke:#1f77b4;" x="187.366076" xlink:href="#m6fe24c6654" y="186.157682"/>
     <use style="fill:#1f77b4;stroke:#1f77b4;" x="203.81327" xlink:href="#m6fe24c6654" y="146.315269"/>
     <use style="fill:#1f77b4;stroke:#1f77b4;" x="220.260465" xlink:href="#m6fe24c6654" y="98.829304"/>
     <use style="fill:#1f77b4;stroke:#1f77b4;" x="236.70766" xlink:href="#m6fe24c6654" y="49.881047"/>
     <use style="fill:#1f77b4;stroke:#1f77b4;" x="253.154854" xlink:href="#m6fe24c6654" y="23.571412"/>
     <use style="fill:#1f77b4;stroke:#1f77b4;" x="269.602049" xlink:href="#m6fe24c6654" y="27.746373"/>
     <use style="fill:#1f77b4;stroke:#1f77b4;" x="286.049244" xlink:href="#m6fe24c6654" y="52.382861"/>
     <use style="fill:#1f77b4;stroke:#1f77b4;" x="302.496438" xlink:href="#m6fe24c6654" y="97.686461"/>
     <use style="fill:#1f77b4;stroke:#1f77b4;" x="318.943633" xlink:href="#m6fe24c6654" y="149.978903"/>
     <use style="fill:#1f77b4;stroke:#1f77b4;" x="335.390828" xlink:href="#m6fe24c6654" y="190.359001"/>
     <use style="fill:#1f77b4;stroke:#1f77b4;" x="351.838023" xlink:href="#m6fe24c6654" y="230.543001"/>
     <use style="fill:#1f77b4;stroke:#1f77b4;" x="368.285217" xlink:href="#m6fe24c6654" y="241.015196"/>
     <use style="fill:#1f77b4;stroke:#1f77b4;" x="384.732412" xlink:href="#m6fe24c6654" y="263.736051"/>
     <use style="fill:#1f77b4;stroke:#1f77b4;" x="401.179607" xlink:href="#m6fe24c6654" y="269.846676"/>
    </g>
   </g>
   <g id="line2d_13">
    <defs>
     <path d="M 0 3 
C 0.795609 3 1.55874 2.683901 2.12132 2.12132 
C 2.683901 1.55874 3 0.795609 3 0 
C 3 -0.795609 2.683901 -1.55874 2.12132 -2.12132 
C 1.55874 -2.683901 0.795609 -3 0 -3 
C -0.795609 -3 -1.55874 -2.683901 -2.12132 -2.12132 
C -2.683901 -1.55874 -3 -0.795609 -3 0 
C -3 0.795609 -2.683901 1.55874 -2.12132 2.12132 
C -1.55874 2.683901 -0.795609 3 0 3 
z
" id="m2796eefce1" style="stroke:#ff7f0e;"/>
    </defs>
    <g clip-path="url(#p17b20f0386)">
     <use style="fill:#ff7f0e;stroke:#ff7f0e;" x="125.598735" xlink:href="#m2796eefce1" y="268.804906"/>
     <use style="fill:#ff7f0e;stroke:#ff7f0e;" x="146.222772" xlink:href="#m2796eefce1" y="259.675838"/>
     <use style="fill:#ff7f0e;stroke:#ff7f0e;" x="166.846809" xlink:href="#m2796eefce1" y="242.898578"/>
     <use style="fill:#ff7f0e;stroke:#ff7f0e;" x="187.470846" xlink:href="#m2796eefce1" y="179.423641"/>
     <use style="fill:#ff7f0e;stroke:#ff7f0e;" x="208.094883" xlink:href="#m2796eefce1" y="134.77259"/>
     <use style="fill:#ff7f0e;stroke:#ff7f0e;" x="228.71892" xlink:href="#m2796eefce1" y="64.881235"/>
     <use style="fill:#ff7f0e;stroke:#ff7f0e;" x="249.342957" xlink:href="#m2796eefce1" y="28.69745"/>
     <use style="fill:#ff7f0e;stroke:#ff7f0e;" x="269.966994" xlink:href="#m2796eefce1" y="24.451151"/>
     <use style="fill:#ff7f0e;stroke:#ff7f0e;" x="290.591031" xlink:href="#m2796eefce1" y="55.48618"/>
     <use style="fill:#ff7f0e;stroke:#ff7f0e;" x="311.215069" xlink:href="#m2796eefce1" y="120.003956"/>
     <use style="fill:#ff7f0e;stroke:#ff7f0e;" x="331.839106" xlink:href="#m2796eefce1" y="181.066007"/>
     <use style="fill:#ff7f0e;stroke:#ff7f0e;" x="352.463143" xlink:href="#m2796eefce1" y="224.869487"/>
     <use style="fill:#ff7f0e;stroke:#ff7f0e;" x="373.08718" xlink:href="#m2796eefce1" y="253.684789"/>
     <use style="fill:#ff7f0e;stroke:#ff7f0e;" x="393.711217" xlink:href="#m2796eefce1" y="272.917155"/>
     <use style="fill:#ff7f0e;stroke:#ff7f0e;" x="414.335254" xlink:href="#m2796eefce1" y="274.985946"/>
     <use style="fill:#ff7f0e;stroke:#ff7f0e;" x="434.959291" xlink:href="#m2796eefce1" y="282.293211"/>
    </g>
   </g>
   <g id="line2d_14">
    <defs>
     <path d="M 0 3 
C 0.795609 3 1.55874 2.683901 2.12132 2.12132 
C 2.683901 1.55874 3 0.795609 3 0 
C 3 -0.795609 2.683901 -1.55874 2.12132 -2.12132 
C 1.55874 -2.683901 0.795609 -3 0 -3 
C -0.795609 -3 -1.55874 -2.683901 -2.12132 -2.12132 
C -2.683901 -1.55874 -3 -0.795609 -3 0 
C -3 0.795609 -2.683901 1.55874 -2.12132 2.12132 
C -1.55874 2.683901 -0.795609 3 0 3 
z
" id="m0574489cf3" style="stroke:#2ca02c;"/>
    </defs>
    <g clip-path="url(#p17b20f0386)">
     <use style="fill:#2ca02c;stroke:#2ca02c;" x="98.242811" xlink:href="#m0574489cf3" y="277.056583"/>
     <use style="fill:#2ca02c;stroke:#2ca02c;" x="122.824233" xlink:href="#m0574489cf3" y="271.874673"/>
     <use style="fill:#2ca02c;stroke:#2ca02c;" x="147.405655" xlink:href="#m0574489cf3" y="249.701802"/>
     <use style="fill:#2ca02c;stroke:#2ca02c;" x="171.987077" xlink:href="#m0574489cf3" y="203.112149"/>
     <use style="fill:#2ca02c;stroke:#2ca02c;" x="196.568499" xlink:href="#m0574489cf3" y="161.032502"/>
     <use style="fill:#2ca02c;stroke:#2ca02c;" x="221.149921" xlink:href="#m0574489cf3" y="88.982291"/>
     <use style="fill:#2ca02c;stroke:#2ca02c;" x="245.731343" xlink:href="#m0574489cf3" y="25.028749"/>
     <use style="fill:#2ca02c;stroke:#2ca02c;" x="270.312765" xlink:href="#m0574489cf3" y="24.613562"/>
     <use style="fill:#2ca02c;stroke:#2ca02c;" x="294.894187" xlink:href="#m0574489cf3" y="66.875976"/>
     <use style="fill:#2ca02c;stroke:#2ca02c;" x="319.475609" xlink:href="#m0574489cf3" y="143.131933"/>
     <use style="fill:#2ca02c;stroke:#2ca02c;" x="344.057031" xlink:href="#m0574489cf3" y="204.874316"/>
     <use style="fill:#2ca02c;stroke:#2ca02c;" x="368.638453" xlink:href="#m0574489cf3" y="257.646341"/>
     <use style="fill:#2ca02c;stroke:#2ca02c;" x="393.219875" xlink:href="#m0574489cf3" y="264.708741"/>
     <use style="fill:#2ca02c;stroke:#2ca02c;" x="417.801297" xlink:href="#m0574489cf3" y="274.97748"/>
     <use style="fill:#2ca02c;stroke:#2ca02c;" x="442.382719" xlink:href="#m0574489cf3" y="284.4"/>
     <use style="fill:#2ca02c;stroke:#2ca02c;" x="466.964141" xlink:href="#m0574489cf3" y="282.291316"/>
    </g>
   </g>
   <g id="line2d_15">
    <defs>
     <path d="M 0 3 
C 0.795609 3 1.55874 2.683901 2.12132 2.12132 
C 2.683901 1.55874 3 0.795609 3 0 
C 3 -0.795609 2.683901 -1.55874 2.12132 -2.12132 
C 1.55874 -2.683901 0.795609 -3 0 -3 
C -0.795609 -3 -1.55874 -2.683901 -2.12132 -2.12132 
C -2.683901 -1.55874 -3 -0.795609 -3 0 
C -3 0.795609 -2.683901 1.55874 -2.12132 2.12132 
C -1.55874 2.683901 -0.795609 3 0 3 
z
" id="m1ce3a3415e" style="stroke:#d62728;"/>
    </defs>
    <g clip-path="url(#p17b20f0386)">
     <use style="fill:#d62728;stroke:#d62728;" x="72.03806" xlink:href="#m1ce3a3415e" y="282.289767"/>
     <use style="fill:#d62728;stroke:#d62728;" x="100.410335" xlink:href="#m1ce3a3415e" y="279.140276"/>
     <use style="fill:#d62728;stroke:#d62728;" x="128.78261" xlink:href="#m1ce3a3415e" y="260.642965"/>
     <use style="fill:#d62728;stroke:#d62728;" x="157.154885" xlink:href="#m1ce3a3415e" y="235.134099"/>
     <use style="fill:#d62728;stroke:#d62728;" x="185.52716" xlink:href="#m1ce3a3415e" y="198.680779"/>
     <use style="fill:#d62728;stroke:#d62728;" x="213.899435" xlink:href="#m1ce3a3415e" y="110.854496"/>
     <use style="fill:#d62728;stroke:#d62728;" x="242.27171" xlink:href="#m1ce3a3415e" y="36.611516"/>
     <use style="fill:#d62728;stroke:#d62728;" x="270.643985" xlink:href="#m1ce3a3415e" y="23.772505"/>
     <use style="fill:#d62728;stroke:#d62728;" x="299.01626" xlink:href="#m1ce3a3415e" y="79.475884"/>
     <use style="fill:#d62728;stroke:#d62728;" x="327.388535" xlink:href="#m1ce3a3415e" y="153.329804"/>
     <use style="fill:#d62728;stroke:#d62728;" x="355.76081" xlink:href="#m1ce3a3415e" y="225.7036"/>
     <use style="fill:#d62728;stroke:#d62728;" x="384.133085" xlink:href="#m1ce3a3415e" y="263.678275"/>
     <use style="fill:#d62728;stroke:#d62728;" x="412.50536" xlink:href="#m1ce3a3415e" y="272.898385"/>
     <use style="fill:#d62728;stroke:#d62728;" x="440.877636" xlink:href="#m1ce3a3415e" y="282.289767"/>
     <use style="fill:#d62728;stroke:#d62728;" x="469.249911" xlink:href="#m1ce3a3415e" y="284.4"/>
     <use style="fill:#d62728;stroke:#d62728;" x="497.622186" xlink:href="#m1ce3a3415e" y="283.343826"/>
    </g>
   </g>
   <g id="line2d_16">
    <defs>
     <path d="M 0 3 
C 0.795609 3 1.55874 2.683901 2.12132 2.12132 
C 2.683901 1.55874 3 0.795609 3 0 
C 3 -0.795609 2.683901 -1.55874 2.12132 -2.12132 
C 1.55874 -2.683901 0.795609 -3 0 -3 
C -0.795609 -3 -1.55874 -2.683901 -2.12132 -2.12132 
C -2.683901 -1.55874 -3 -0.795609 -3 0 
C -3 0.795609 -2.683901 1.55874 -2.12132 2.12132 
C -1.55874 2.683901 -0.795609 3 0 3 
z
" id="mb7af628ce1" style="stroke:#9467bd;"/>
    </defs>
    <g clip-path="url(#p17b20f0386)">
     <use style="fill:#9467bd;stroke:#9467bd;" x="46.753438" xlink:href="#mb7af628ce1" y="284.4"/>
     <use style="fill:#9467bd;stroke:#9467bd;" x="78.783458" xlink:href="#mb7af628ce1" y="284.4"/>
     <use style="fill:#9467bd;stroke:#9467bd;" x="110.813477" xlink:href="#mb7af628ce1" y="276.004604"/>
     <use style="fill:#9467bd;stroke:#9467bd;" x="142.843497" xlink:href="#mb7af628ce1" y="248.669848"/>
     <use style="fill:#9467bd;stroke:#9467bd;" x="174.873516" xlink:href="#mb7af628ce1" y="217.355319"/>
     <use style="fill:#9467bd;stroke:#9467bd;" x="206.903536" xlink:href="#mb7af628ce1" y="131.667486"/>
     <use style="fill:#9467bd;stroke:#9467bd;" x="238.933556" xlink:href="#mb7af628ce1" y="48.381058"/>
     <use style="fill:#9467bd;stroke:#9467bd;" x="270.963575" xlink:href="#mb7af628ce1" y="25.111764"/>
     <use style="fill:#9467bd;stroke:#9467bd;" x="302.993595" xlink:href="#mb7af628ce1" y="80.862437"/>
     <use style="fill:#9467bd;stroke:#9467bd;" x="335.023614" xlink:href="#mb7af628ce1" y="175.91998"/>
     <use style="fill:#9467bd;stroke:#9467bd;" x="367.053634" xlink:href="#mb7af628ce1" y="229.416295"/>
     <use style="fill:#9467bd;stroke:#9467bd;" x="399.083654" xlink:href="#mb7af628ce1" y="272.891241"/>
     <use style="fill:#9467bd;stroke:#9467bd;" x="431.113673" xlink:href="#mb7af628ce1" y="280.185376"/>
     <use style="fill:#9467bd;stroke:#9467bd;" x="463.143693" xlink:href="#mb7af628ce1" y="282.288456"/>
     <use style="fill:#9467bd;stroke:#9467bd;" x="495.173712" xlink:href="#mb7af628ce1" y="284.4"/>
     <use style="fill:#9467bd;stroke:#9467bd;" x="527.203732" xlink:href="#mb7af628ce1" y="284.4"/>
    </g>
   </g>
   <g id="line2d_17">
    <defs>
     <path d="M 0 3 
C 0.795609 3 1.55874 2.683901 2.12132 2.12132 
C 2.683901 1.55874 3 0.795609 3 0 
C 3 -0.795609 2.683901 -1.55874 2.12132 -2.12132 
C 1.55874 -2.683901 0.795609 -3 0 -3 
C -0.795609 -3 -1.55874 -2.683901 -2.12132 -2.12132 
C -2.683901 -1.55874 -3 -0.795609 -3 0 
C -3 0.795609 -2.683901 1.55874 -2.12132 2.12132 
C -1.55874 2.683901 -0.795609 3 0 3 
z
" id="ma2c7c1c033" style="stroke:#8c564b;"/>
    </defs>
    <g clip-path="url(#p17b20f0386)">
     <use style="fill:#8c564b;stroke:#8c564b;" x="22.230703" xlink:href="#ma2c7c1c033" y="284.4"/>
     <use style="fill:#8c564b;stroke:#8c564b;" x="57.80825" xlink:href="#ma2c7c1c033" y="283.342602"/>
     <use style="fill:#8c564b;stroke:#8c564b;" x="93.385798" xlink:href="#ma2c7c1c033" y="281.234156"/>
     <use style="fill:#8c564b;stroke:#8c564b;" x="128.963345" xlink:href="#ma2c7c1c033" y="264.671425"/>
     <use style="fill:#8c564b;stroke:#8c564b;" x="164.540893" xlink:href="#ma2c7c1c033" y="226.570159"/>
     <use style="fill:#8c564b;stroke:#8c564b;" x="200.11844" xlink:href="#ma2c7c1c033" y="139.993693"/>
     <use style="fill:#8c564b;stroke:#8c564b;" x="235.695988" xlink:href="#ma2c7c1c033" y="53.699834"/>
     <use style="fill:#8c564b;stroke:#8c564b;" x="271.273535" xlink:href="#ma2c7c1c033" y="21.65294"/>
     <use style="fill:#8c564b;stroke:#8c564b;" x="306.851083" xlink:href="#ma2c7c1c033" y="98.671543"/>
     <use style="fill:#8c564b;stroke:#8c564b;" x="342.42863" xlink:href="#ma2c7c1c033" y="193.399184"/>
     <use style="fill:#8c564b;stroke:#8c564b;" x="378.006178" xlink:href="#ma2c7c1c033" y="245.707057"/>
     <use style="fill:#8c564b;stroke:#8c564b;" x="413.583725" xlink:href="#ma2c7c1c033" y="273.921279"/>
     <use style="fill:#8c564b;stroke:#8c564b;" x="449.161273" xlink:href="#ma2c7c1c033" y="282.28732"/>
     <use style="fill:#8c564b;stroke:#8c564b;" x="484.73882" xlink:href="#ma2c7c1c033" y="284.4"/>
     <use style="fill:#8c564b;stroke:#8c564b;" x="520.316368" xlink:href="#ma2c7c1c033" y="284.4"/>
     <use style="fill:#8c564b;stroke:#8c564b;" x="555.893915" xlink:href="#ma2c7c1c033" y="284.4"/>
    </g>
   </g>
   <g id="line2d_18">
    <defs>
     <path d="M 0 3 
C 0.795609 3 1.55874 2.683901 2.12132 2.12132 
C 2.683901 1.55874 3 0.795609 3 0 
C 3 -0.795609 2.683901 -1.55874 2.12132 -2.12132 
C 1.55874 -2.683901 0.795609 -3 0 -3 
C -0.795609 -3 -1.55874 -2.683901 -2.12132 -2.12132 
C -2.683901 -1.55874 -3 -0.795609 -3 0 
C -3 0.795609 -2.683901 1.55874 -2.12132 2.12132 
C -1.55874 2.683901 -0.795609 3 0 3 
z
" id="me78f046967" style="stroke:#e377c2;"/>
    </defs>
    <g clip-path="url(#p17b20f0386)">
     <use style="fill:#e377c2;stroke:#e377c2;" x="-1" xlink:href="#me78f046967" y="284.4"/>
     <use style="fill:#e377c2;stroke:#e377c2;" x="37.386637" xlink:href="#me78f046967" y="284.4"/>
     <use style="fill:#e377c2;stroke:#e377c2;" x="76.418083" xlink:href="#me78f046967" y="284.4"/>
     <use style="fill:#e377c2;stroke:#e377c2;" x="115.44953" xlink:href="#me78f046967" y="271.844982"/>
     <use style="fill:#e377c2;stroke:#e377c2;" x="154.480976" xlink:href="#me78f046967" y="236.009809"/>
     <use style="fill:#e377c2;stroke:#e377c2;" x="193.512422" xlink:href="#me78f046967" y="167.783198"/>
     <use style="fill:#e377c2;stroke:#e377c2;" x="232.543868" xlink:href="#me78f046967" y="54.352804"/>
     <use style="fill:#e377c2;stroke:#e377c2;" x="271.575314" xlink:href="#me78f046967" y="22.981144"/>
     <use style="fill:#e377c2;stroke:#e377c2;" x="310.606761" xlink:href="#me78f046967" y="103.27671"/>
     <use style="fill:#e377c2;stroke:#e377c2;" x="349.638207" xlink:href="#me78f046967" y="203.801571"/>
     <use style="fill:#e377c2;stroke:#e377c2;" x="388.669653" xlink:href="#me78f046967" y="265.681841"/>
     <use style="fill:#e377c2;stroke:#e377c2;" x="427.701099" xlink:href="#me78f046967" y="280.181107"/>
     <use style="fill:#e377c2;stroke:#e377c2;" x="466.732546" xlink:href="#me78f046967" y="284.4"/>
     <use style="fill:#e377c2;stroke:#e377c2;" x="505.763992" xlink:href="#me78f046967" y="284.4"/>
     <use style="fill:#e377c2;stroke:#e377c2;" x="544.795438" xlink:href="#me78f046967" y="284.4"/>
     <use style="fill:#e377c2;stroke:#e377c2;" x="583.826884" xlink:href="#me78f046967" y="284.4"/>
    </g>
   </g>
   <g id="line2d_19">
    <defs>
     <path d="M 0 3 
C 0.795609 3 1.55874 2.683901 2.12132 2.12132 
C 2.683901 1.55874 3 0.795609 3 0 
C 3 -0.795609 2.683901 -1.55874 2.12132 -2.12132 
C 1.55874 -2.683901 0.795609 -3 0 -3 
C -0.795609 -3 -1.55874 -2.683901 -2.12132 -2.12132 
C -2.683901 -1.55874 -3 -0.795609 -3 0 
C -3 0.795609 -2.683901 1.55874 -2.12132 2.12132 
C -1.55874 2.683901 -0.795609 3 0 3 
z
" id="m3b933b28a0" style="stroke:#7f7f7f;"/>
    </defs>
    <g clip-path="url(#p17b20f0386)">
     <use style="fill:#7f7f7f;stroke:#7f7f7f;" x="-1" xlink:href="#m3b933b28a0" y="284.4"/>
     <use style="fill:#7f7f7f;stroke:#7f7f7f;" x="17.444541" xlink:href="#m3b933b28a0" y="284.4"/>
     <use style="fill:#7f7f7f;stroke:#7f7f7f;" x="59.848785" xlink:href="#m3b933b28a0" y="284.4"/>
     <use style="fill:#7f7f7f;stroke:#7f7f7f;" x="102.25303" xlink:href="#m3b933b28a0" y="280.179316"/>
     <use style="fill:#7f7f7f;stroke:#7f7f7f;" x="144.657274" xlink:href="#m3b933b28a0" y="241.773638"/>
     <use style="fill:#7f7f7f;stroke:#7f7f7f;" x="187.061519" xlink:href="#m3b933b28a0" y="177.395501"/>
     <use style="fill:#7f7f7f;stroke:#7f7f7f;" x="229.465763" xlink:href="#m3b933b28a0" y="68.064541"/>
     <use style="fill:#7f7f7f;stroke:#7f7f7f;" x="271.870008" xlink:href="#m3b933b28a0" y="28.129077"/>
     <use style="fill:#7f7f7f;stroke:#7f7f7f;" x="314.274252" xlink:href="#m3b933b28a0" y="106.203248"/>
     <use style="fill:#7f7f7f;stroke:#7f7f7f;" x="356.678497" xlink:href="#m3b933b28a0" y="230.281175"/>
     <use style="fill:#7f7f7f;stroke:#7f7f7f;" x="399.082741" xlink:href="#m3b933b28a0" y="261.605766"/>
     <use style="fill:#7f7f7f;stroke:#7f7f7f;" x="441.486986" xlink:href="#m3b933b28a0" y="280.179316"/>
     <use style="fill:#7f7f7f;stroke:#7f7f7f;" x="483.89123" xlink:href="#m3b933b28a0" y="284.4"/>
     <use style="fill:#7f7f7f;stroke:#7f7f7f;" x="526.295475" xlink:href="#m3b933b28a0" y="284.4"/>
     <use style="fill:#7f7f7f;stroke:#7f7f7f;" x="568.699719" xlink:href="#m3b933b28a0" y="284.4"/>
     <use style="fill:#7f7f7f;stroke:#7f7f7f;" x="611.103963" xlink:href="#m3b933b28a0" y="284.4"/>
    </g>
   </g>
   <g id="line2d_20">
    <defs>
     <path d="M 0 3 
C 0.795609 3 1.55874 2.683901 2.12132 2.12132 
C 2.683901 1.55874 3 0.795609 3 0 
C 3 -0.795609 2.683901 -1.55874 2.12132 -2.12132 
C 1.55874 -2.683901 0.795609 -3 0 -3 
C -0.795609 -3 -1.55874 -2.683901 -2.12132 -2.12132 
C -2.683901 -1.55874 -3 -0.795609 -3 0 
C -3 0.795609 -2.683901 1.55874 -2.12132 2.12132 
C -1.55874 2.683901 -0.795609 3 0 3 
z
" id="m912c007de6" style="stroke:#bcbd22;"/>
    </defs>
    <g clip-path="url(#p17b20f0386)">
     <use style="fill:#bcbd22;stroke:#bcbd22;" x="-1" xlink:href="#m912c007de6" y="284.4"/>
     <use style="fill:#bcbd22;stroke:#bcbd22;" x="43.629906" xlink:href="#m912c007de6" y="284.4"/>
     <use style="fill:#bcbd22;stroke:#bcbd22;" x="89.335618" xlink:href="#m912c007de6" y="282.284609"/>
     <use style="fill:#bcbd22;stroke:#bcbd22;" x="135.041331" xlink:href="#m912c007de6" y="255.556066"/>
     <use style="fill:#bcbd22;stroke:#bcbd22;" x="180.747043" xlink:href="#m912c007de6" y="195.867266"/>
     <use style="fill:#bcbd22;stroke:#bcbd22;" x="226.452756" xlink:href="#m912c007de6" y="67.981469"/>
     <use style="fill:#bcbd22;stroke:#bcbd22;" x="272.158468" xlink:href="#m912c007de6" y="20.4"/>
     <use style="fill:#bcbd22;stroke:#bcbd22;" x="317.864181" xlink:href="#m912c007de6" y="116.105564"/>
     <use style="fill:#bcbd22;stroke:#bcbd22;" x="363.569894" xlink:href="#m912c007de6" y="224.626415"/>
     <use style="fill:#bcbd22;stroke:#bcbd22;" x="409.275606" xlink:href="#m912c007de6" y="273.907828"/>
     <use style="fill:#bcbd22;stroke:#bcbd22;" x="454.981319" xlink:href="#m912c007de6" y="282.284609"/>
     <use style="fill:#bcbd22;stroke:#bcbd22;" x="500.687031" xlink:href="#m912c007de6" y="284.4"/>
     <use style="fill:#bcbd22;stroke:#bcbd22;" x="546.392744" xlink:href="#m912c007de6" y="284.4"/>
     <use style="fill:#bcbd22;stroke:#bcbd22;" x="592.098457" xlink:href="#m912c007de6" y="284.4"/>
     <use style="fill:#bcbd22;stroke:#bcbd22;" x="637.804169" xlink:href="#m912c007de6" y="284.4"/>
    </g>
   </g>
   <g id="line2d_21">
    <defs>
     <path d="M 0 3 
C 0.795609 3 1.55874 2.683901 2.12132 2.12132 
C 2.683901 1.55874 3 0.795609 3 0 
C 3 -0.795609 2.683901 -1.55874 2.12132 -2.12132 
C 1.55874 -2.683901 0.795609 -3 0 -3 
C -0.795609 -3 -1.55874 -2.683901 -2.12132 -2.12132 
C -2.683901 -1.55874 -3 -0.795609 -3 0 
C -3 0.795609 -2.683901 1.55874 -2.12132 2.12132 
C -1.55874 2.683901 -0.795609 3 0 3 
z
" id="m8e703e6d0d" style="stroke:#17becf;"/>
    </defs>
    <g clip-path="url(#p17b20f0386)">
     <use style="fill:#17becf;stroke:#17becf;" x="-1" xlink:href="#m8e703e6d0d" y="284.4"/>
     <use style="fill:#17becf;stroke:#17becf;" x="27.723053" xlink:href="#m8e703e6d0d" y="284.4"/>
     <use style="fill:#17becf;stroke:#17becf;" x="76.666719" xlink:href="#m8e703e6d0d" y="284.4"/>
     <use style="fill:#17becf;stroke:#17becf;" x="125.610384" xlink:href="#m8e703e6d0d" y="271.830425"/>
     <use style="fill:#17becf;stroke:#17becf;" x="174.554049" xlink:href="#m8e703e6d0d" y="202.824982"/>
     <use style="fill:#17becf;stroke:#17becf;" x="223.497715" xlink:href="#m8e703e6d0d" y="83.511554"/>
     <use style="fill:#17becf;stroke:#17becf;" x="272.44138" xlink:href="#m8e703e6d0d" y="25.158869"/>
     <use style="fill:#17becf;stroke:#17becf;" x="321.385045" xlink:href="#m8e703e6d0d" y="140.473273"/>
     <use style="fill:#17becf;stroke:#17becf;" x="370.32871" xlink:href="#m8e703e6d0d" y="230.241415"/>
     <use style="fill:#17becf;stroke:#17becf;" x="419.272376" xlink:href="#m8e703e6d0d" y="282.283867"/>
     <use style="fill:#17becf;stroke:#17becf;" x="468.216041" xlink:href="#m8e703e6d0d" y="282.283867"/>
     <use style="fill:#17becf;stroke:#17becf;" x="517.159706" xlink:href="#m8e703e6d0d" y="284.4"/>
     <use style="fill:#17becf;stroke:#17becf;" x="566.103371" xlink:href="#m8e703e6d0d" y="284.4"/>
     <use style="fill:#17becf;stroke:#17becf;" x="615.047037" xlink:href="#m8e703e6d0d" y="284.4"/>
     <use style="fill:#17becf;stroke:#17becf;" x="663.990702" xlink:href="#m8e703e6d0d" y="284.4"/>
    </g>
   </g>
   <g id="patch_3">
    <path d="M 67.285 284.4 
L 67.285 7.2 
" style="fill:none;stroke:#000000;stroke-linecap:square;stroke-linejoin:miter;stroke-width:0.8;"/>
   </g>
   <g id="patch_4">
    <path d="M 469.045 284.4 
L 469.045 7.2 
" style="fill:none;stroke:#000000;stroke-linecap:square;stroke-linejoin:miter;stroke-width:0.8;"/>
   </g>
   <g id="patch_5">
    <path d="M 67.285 284.4 
L 469.045 284.4 
" style="fill:none;stroke:#000000;stroke-linecap:square;stroke-linejoin:miter;stroke-width:0.8;"/>
   </g>
   <g id="patch_6">
    <path d="M 67.285 7.2 
L 469.045 7.2 
" style="fill:none;stroke:#000000;stroke-linecap:square;stroke-linejoin:miter;stroke-width:0.8;"/>
   </g>
  </g>
 </g>
 <defs>
  <clipPath id="p17b20f0386">
   <rect height="277.2" width="401.76" x="67.285" y="7.2"/>
  </clipPath>
 </defs>
</svg>
